<svg xmlns="http://www.w3.org/2000/svg" width="104.277" height="91.688" viewBox="0 0 104.277 91.688">
  <g id="hand-shake" transform="translate(0 -30.905)">
    <path id="Path_221" data-name="Path 221" d="M52.139,118.008a3.073,3.073,0,0,1-1.1-.205A121.017,121.017,0,0,1,25.789,103.7,76.162,76.162,0,0,1,8.222,86.349C2.766,78.554,0,70.327,0,61.9A30.987,30.987,0,0,1,54.466,41.674a3.073,3.073,0,0,1-.058,4.078L38.6,63.08a2.682,2.682,0,0,0-.387,3.182,2.713,2.713,0,0,0,2.922,1.408c8.284-1.414,16.1-5.743,23.222-12.866a3.073,3.073,0,0,1,4.346,0L95.957,82.061a3.073,3.073,0,0,1,.359,3.914c-5.941,8.639-15,16.622-26.925,23.728a116.857,116.857,0,0,1-16.148,8.1A3.081,3.081,0,0,1,52.139,118.008Z" transform="translate(0 -0.003)" fill="#d97652"/>
    <path id="Path_222" data-name="Path 222" d="M217.745,87.3a3.072,3.072,0,0,1-2.173-.9L190.437,61.268c-7.454,6.786-15.619,10.973-24.31,12.456a8.915,8.915,0,0,1-8.11-14.791l15.783-17.3a30.987,30.987,0,0,1,54.437,20.257c0,8.291-2.678,16.391-7.96,24.077a3.073,3.073,0,0,1-2.252,1.32C217.932,87.3,217.838,87.3,217.745,87.3Z" transform="translate(-123.961)" fill="#ffcea1"/>
    <path id="Path_223" data-name="Path 223" d="M272.558,144.71a3.073,3.073,0,0,0-4.346,0A49.733,49.733,0,0,1,256,153.838v54.076h0a3.075,3.075,0,0,0,1.1-.205,116.856,116.856,0,0,0,16.148-8.1c11.925-7.106,20.984-15.089,26.925-23.728a3.073,3.073,0,0,0-.359-3.914Z" transform="translate(-203.859 -89.91)" fill="#dc8f73"/>
    <path id="Path_224" data-name="Path 224" d="M277.147,30.908A30.964,30.964,0,0,0,256,39.252V70.738a52.418,52.418,0,0,0,14.338-9.467l25.135,25.135a3.072,3.072,0,0,0,2.173.9q.14,0,.281-.013a3.073,3.073,0,0,0,2.252-1.32c5.282-7.686,7.96-15.786,7.96-24.077A31.023,31.023,0,0,0,277.147,30.908Z" transform="translate(-203.858 -0.002)" fill="#ffb883"/>
    <path id="Path_225" data-name="Path 225" d="M70.78,287.9a9.334,9.334,0,0,0-10.32-8.23,9.452,9.452,0,0,0-1.141.2,9.34,9.34,0,0,0-9.929-6.406l-.05.007a9.334,9.334,0,0,0-10.164-7.283,9.48,9.48,0,0,0-1.306.242,9.329,9.329,0,0,0-16.138-2.843L16.3,270.395a9.327,9.327,0,0,0,9.64,14.847,9.339,9.339,0,0,0,8.831,6.364,9.535,9.535,0,0,0,1.063-.06l.056-.008a9.313,9.313,0,0,0,9.1,7.339,9.409,9.409,0,0,0,2.193-.262,9.344,9.344,0,0,0,8.868,6.472,9.524,9.524,0,0,0,1.063-.06,9.272,9.272,0,0,0,6.252-3.455l5.429-6.808A9.277,9.277,0,0,0,70.78,287.9Z" transform="translate(-11.364 -182.493)" fill="#ffcea1"/>
    <path id="Path_226" data-name="Path 226" d="M259.818,358.875A9.293,9.293,0,0,0,256,357.052v21.585l5.3-6.645a9.335,9.335,0,0,0-1.478-13.117Z" transform="translate(-203.858 -259.722)" fill="#ffb883"/>
  </g>
</svg>
