<svg xmlns="http://www.w3.org/2000/svg" xmlns:xlink="http://www.w3.org/1999/xlink" width="1635" height="1410" viewBox="0 0 1635 1410">
  <defs>
    <filter id="Rectangle_107" x="0" y="0" width="1635" height="1410" filterUnits="userSpaceOnUse">
      <feOffset dy="3" input="SourceAlpha"/>
      <feGaussianBlur stdDeviation="3" result="blur"/>
      <feFlood flood-opacity="0.161"/>
      <feComposite operator="in" in2="blur"/>
      <feComposite in="SourceGraphic"/>
    </filter>
    <filter id="Rectangle_108" x="50" y="45" width="1532" height="195" filterUnits="userSpaceOnUse">
      <feOffset dy="3" input="SourceAlpha"/>
      <feGaussianBlur stdDeviation="3" result="blur-2"/>
      <feFlood flood-opacity="0.161"/>
      <feComposite operator="in" in2="blur-2"/>
      <feComposite in="SourceGraphic"/>
    </filter>
    <filter id="Rectangle_109" x="51" y="334" width="198" height="152" filterUnits="userSpaceOnUse">
      <feOffset dy="3" input="SourceAlpha"/>
      <feGaussianBlur stdDeviation="3" result="blur-3"/>
      <feFlood flood-opacity="0.161"/>
      <feComposite operator="in" in2="blur-3"/>
      <feComposite in="SourceGraphic"/>
    </filter>
    <filter id="Rectangle_109-2" x="273" y="334" width="198" height="152" filterUnits="userSpaceOnUse">
      <feOffset dy="3" input="SourceAlpha"/>
      <feGaussianBlur stdDeviation="3" result="blur-4"/>
      <feFlood flood-opacity="0.161"/>
      <feComposite operator="in" in2="blur-4"/>
      <feComposite in="SourceGraphic"/>
    </filter>
    <filter id="Rectangle_109-3" x="497" y="334" width="196" height="152" filterUnits="userSpaceOnUse">
      <feOffset dy="3" input="SourceAlpha"/>
      <feGaussianBlur stdDeviation="3" result="blur-5"/>
      <feFlood flood-opacity="0.161"/>
      <feComposite operator="in" in2="blur-5"/>
      <feComposite in="SourceGraphic"/>
    </filter>
    <filter id="Rectangle_109-4" x="720" y="334" width="197" height="152" filterUnits="userSpaceOnUse">
      <feOffset dy="3" input="SourceAlpha"/>
      <feGaussianBlur stdDeviation="3" result="blur-6"/>
      <feFlood flood-opacity="0.161"/>
      <feComposite operator="in" in2="blur-6"/>
      <feComposite in="SourceGraphic"/>
    </filter>
    <filter id="Rectangle_109-5" x="942" y="334" width="197" height="152" filterUnits="userSpaceOnUse">
      <feOffset dy="3" input="SourceAlpha"/>
      <feGaussianBlur stdDeviation="3" result="blur-7"/>
      <feFlood flood-opacity="0.161"/>
      <feComposite operator="in" in2="blur-7"/>
      <feComposite in="SourceGraphic"/>
    </filter>
    <filter id="Rectangle_109-6" x="1163" y="334" width="199" height="152" filterUnits="userSpaceOnUse">
      <feOffset dy="3" input="SourceAlpha"/>
      <feGaussianBlur stdDeviation="3" result="blur-8"/>
      <feFlood flood-opacity="0.161"/>
      <feComposite operator="in" in2="blur-8"/>
      <feComposite in="SourceGraphic"/>
    </filter>
    <filter id="Rectangle_109-7" x="1387" y="334" width="196" height="152" filterUnits="userSpaceOnUse">
      <feOffset dy="3" input="SourceAlpha"/>
      <feGaussianBlur stdDeviation="3" result="blur-9"/>
      <feFlood flood-opacity="0.161"/>
      <feComposite operator="in" in2="blur-9"/>
      <feComposite in="SourceGraphic"/>
    </filter>
    <filter id="Rectangle_109-8" x="51" y="497" width="198" height="151" filterUnits="userSpaceOnUse">
      <feOffset dy="3" input="SourceAlpha"/>
      <feGaussianBlur stdDeviation="3" result="blur-10"/>
      <feFlood flood-opacity="0.161"/>
      <feComposite operator="in" in2="blur-10"/>
      <feComposite in="SourceGraphic"/>
    </filter>
    <filter id="Rectangle_109-9" x="273" y="497" width="198" height="151" filterUnits="userSpaceOnUse">
      <feOffset dy="3" input="SourceAlpha"/>
      <feGaussianBlur stdDeviation="3" result="blur-11"/>
      <feFlood flood-opacity="0.161"/>
      <feComposite operator="in" in2="blur-11"/>
      <feComposite in="SourceGraphic"/>
    </filter>
    <filter id="Rectangle_109-10" x="497" y="497" width="196" height="151" filterUnits="userSpaceOnUse">
      <feOffset dy="3" input="SourceAlpha"/>
      <feGaussianBlur stdDeviation="3" result="blur-12"/>
      <feFlood flood-opacity="0.161"/>
      <feComposite operator="in" in2="blur-12"/>
      <feComposite in="SourceGraphic"/>
    </filter>
    <filter id="Rectangle_109-11" x="720" y="497" width="197" height="151" filterUnits="userSpaceOnUse">
      <feOffset dy="3" input="SourceAlpha"/>
      <feGaussianBlur stdDeviation="3" result="blur-13"/>
      <feFlood flood-opacity="0.161"/>
      <feComposite operator="in" in2="blur-13"/>
      <feComposite in="SourceGraphic"/>
    </filter>
    <filter id="Rectangle_109-12" x="942" y="497" width="197" height="151" filterUnits="userSpaceOnUse">
      <feOffset dy="3" input="SourceAlpha"/>
      <feGaussianBlur stdDeviation="3" result="blur-14"/>
      <feFlood flood-opacity="0.161"/>
      <feComposite operator="in" in2="blur-14"/>
      <feComposite in="SourceGraphic"/>
    </filter>
    <filter id="Rectangle_109-13" x="1163" y="497" width="199" height="151" filterUnits="userSpaceOnUse">
      <feOffset dy="3" input="SourceAlpha"/>
      <feGaussianBlur stdDeviation="3" result="blur-15"/>
      <feFlood flood-opacity="0.161"/>
      <feComposite operator="in" in2="blur-15"/>
      <feComposite in="SourceGraphic"/>
    </filter>
    <filter id="Rectangle_109-14" x="1387" y="497" width="196" height="151" filterUnits="userSpaceOnUse">
      <feOffset dy="3" input="SourceAlpha"/>
      <feGaussianBlur stdDeviation="3" result="blur-16"/>
      <feFlood flood-opacity="0.161"/>
      <feComposite operator="in" in2="blur-16"/>
      <feComposite in="SourceGraphic"/>
    </filter>
    <filter id="Rectangle_109-15" x="51" y="659" width="198" height="152" filterUnits="userSpaceOnUse">
      <feOffset dy="3" input="SourceAlpha"/>
      <feGaussianBlur stdDeviation="3" result="blur-17"/>
      <feFlood flood-opacity="0.161"/>
      <feComposite operator="in" in2="blur-17"/>
      <feComposite in="SourceGraphic"/>
    </filter>
    <filter id="Rectangle_109-16" x="273" y="659" width="198" height="152" filterUnits="userSpaceOnUse">
      <feOffset dy="3" input="SourceAlpha"/>
      <feGaussianBlur stdDeviation="3" result="blur-18"/>
      <feFlood flood-opacity="0.161"/>
      <feComposite operator="in" in2="blur-18"/>
      <feComposite in="SourceGraphic"/>
    </filter>
    <filter id="Rectangle_109-17" x="497" y="659" width="196" height="152" filterUnits="userSpaceOnUse">
      <feOffset dy="3" input="SourceAlpha"/>
      <feGaussianBlur stdDeviation="3" result="blur-19"/>
      <feFlood flood-opacity="0.161"/>
      <feComposite operator="in" in2="blur-19"/>
      <feComposite in="SourceGraphic"/>
    </filter>
    <filter id="Rectangle_109-18" x="720" y="659" width="197" height="152" filterUnits="userSpaceOnUse">
      <feOffset dy="3" input="SourceAlpha"/>
      <feGaussianBlur stdDeviation="3" result="blur-20"/>
      <feFlood flood-opacity="0.161"/>
      <feComposite operator="in" in2="blur-20"/>
      <feComposite in="SourceGraphic"/>
    </filter>
    <filter id="Rectangle_109-19" x="942" y="659" width="197" height="152" filterUnits="userSpaceOnUse">
      <feOffset dy="3" input="SourceAlpha"/>
      <feGaussianBlur stdDeviation="3" result="blur-21"/>
      <feFlood flood-opacity="0.161"/>
      <feComposite operator="in" in2="blur-21"/>
      <feComposite in="SourceGraphic"/>
    </filter>
    <filter id="Rectangle_109-20" x="1163" y="659" width="199" height="152" filterUnits="userSpaceOnUse">
      <feOffset dy="3" input="SourceAlpha"/>
      <feGaussianBlur stdDeviation="3" result="blur-22"/>
      <feFlood flood-opacity="0.161"/>
      <feComposite operator="in" in2="blur-22"/>
      <feComposite in="SourceGraphic"/>
    </filter>
    <filter id="Rectangle_109-21" x="1387" y="659" width="196" height="152" filterUnits="userSpaceOnUse">
      <feOffset dy="3" input="SourceAlpha"/>
      <feGaussianBlur stdDeviation="3" result="blur-23"/>
      <feFlood flood-opacity="0.161"/>
      <feComposite operator="in" in2="blur-23"/>
      <feComposite in="SourceGraphic"/>
    </filter>
    <filter id="Rectangle_109-22" x="51" y="822" width="198" height="152" filterUnits="userSpaceOnUse">
      <feOffset dy="3" input="SourceAlpha"/>
      <feGaussianBlur stdDeviation="3" result="blur-24"/>
      <feFlood flood-opacity="0.161"/>
      <feComposite operator="in" in2="blur-24"/>
      <feComposite in="SourceGraphic"/>
    </filter>
    <filter id="Rectangle_109-23" x="273" y="822" width="198" height="152" filterUnits="userSpaceOnUse">
      <feOffset dy="3" input="SourceAlpha"/>
      <feGaussianBlur stdDeviation="3" result="blur-25"/>
      <feFlood flood-opacity="0.161"/>
      <feComposite operator="in" in2="blur-25"/>
      <feComposite in="SourceGraphic"/>
    </filter>
    <filter id="Rectangle_109-24" x="497" y="822" width="196" height="152" filterUnits="userSpaceOnUse">
      <feOffset dy="3" input="SourceAlpha"/>
      <feGaussianBlur stdDeviation="3" result="blur-26"/>
      <feFlood flood-opacity="0.161"/>
      <feComposite operator="in" in2="blur-26"/>
      <feComposite in="SourceGraphic"/>
    </filter>
    <filter id="Rectangle_109-25" x="720" y="822" width="197" height="152" filterUnits="userSpaceOnUse">
      <feOffset dy="3" input="SourceAlpha"/>
      <feGaussianBlur stdDeviation="3" result="blur-27"/>
      <feFlood flood-opacity="0.161"/>
      <feComposite operator="in" in2="blur-27"/>
      <feComposite in="SourceGraphic"/>
    </filter>
    <filter id="Rectangle_109-26" x="942" y="822" width="197" height="152" filterUnits="userSpaceOnUse">
      <feOffset dy="3" input="SourceAlpha"/>
      <feGaussianBlur stdDeviation="3" result="blur-28"/>
      <feFlood flood-opacity="0.161"/>
      <feComposite operator="in" in2="blur-28"/>
      <feComposite in="SourceGraphic"/>
    </filter>
    <filter id="Rectangle_109-27" x="1163" y="822" width="199" height="152" filterUnits="userSpaceOnUse">
      <feOffset dy="3" input="SourceAlpha"/>
      <feGaussianBlur stdDeviation="3" result="blur-29"/>
      <feFlood flood-opacity="0.161"/>
      <feComposite operator="in" in2="blur-29"/>
      <feComposite in="SourceGraphic"/>
    </filter>
    <filter id="Rectangle_109-28" x="1387" y="822" width="196" height="152" filterUnits="userSpaceOnUse">
      <feOffset dy="3" input="SourceAlpha"/>
      <feGaussianBlur stdDeviation="3" result="blur-30"/>
      <feFlood flood-opacity="0.161"/>
      <feComposite operator="in" in2="blur-30"/>
      <feComposite in="SourceGraphic"/>
    </filter>
    <filter id="Rectangle_109-29" x="51" y="983" width="198" height="153" filterUnits="userSpaceOnUse">
      <feOffset dy="3" input="SourceAlpha"/>
      <feGaussianBlur stdDeviation="3" result="blur-31"/>
      <feFlood flood-opacity="0.161"/>
      <feComposite operator="in" in2="blur-31"/>
      <feComposite in="SourceGraphic"/>
    </filter>
    <filter id="Rectangle_109-30" x="273" y="983" width="198" height="153" filterUnits="userSpaceOnUse">
      <feOffset dy="3" input="SourceAlpha"/>
      <feGaussianBlur stdDeviation="3" result="blur-32"/>
      <feFlood flood-opacity="0.161"/>
      <feComposite operator="in" in2="blur-32"/>
      <feComposite in="SourceGraphic"/>
    </filter>
    <filter id="Rectangle_109-31" x="497" y="983" width="196" height="153" filterUnits="userSpaceOnUse">
      <feOffset dy="3" input="SourceAlpha"/>
      <feGaussianBlur stdDeviation="3" result="blur-33"/>
      <feFlood flood-opacity="0.161"/>
      <feComposite operator="in" in2="blur-33"/>
      <feComposite in="SourceGraphic"/>
    </filter>
    <filter id="Rectangle_109-32" x="720" y="983" width="197" height="153" filterUnits="userSpaceOnUse">
      <feOffset dy="3" input="SourceAlpha"/>
      <feGaussianBlur stdDeviation="3" result="blur-34"/>
      <feFlood flood-opacity="0.161"/>
      <feComposite operator="in" in2="blur-34"/>
      <feComposite in="SourceGraphic"/>
    </filter>
    <filter id="Rectangle_109-33" x="942" y="983" width="197" height="153" filterUnits="userSpaceOnUse">
      <feOffset dy="3" input="SourceAlpha"/>
      <feGaussianBlur stdDeviation="3" result="blur-35"/>
      <feFlood flood-opacity="0.161"/>
      <feComposite operator="in" in2="blur-35"/>
      <feComposite in="SourceGraphic"/>
    </filter>
    <filter id="Rectangle_109-34" x="1163" y="983" width="199" height="153" filterUnits="userSpaceOnUse">
      <feOffset dy="3" input="SourceAlpha"/>
      <feGaussianBlur stdDeviation="3" result="blur-36"/>
      <feFlood flood-opacity="0.161"/>
      <feComposite operator="in" in2="blur-36"/>
      <feComposite in="SourceGraphic"/>
    </filter>
    <filter id="Rectangle_109-35" x="1387" y="983" width="196" height="153" filterUnits="userSpaceOnUse">
      <feOffset dy="3" input="SourceAlpha"/>
      <feGaussianBlur stdDeviation="3" result="blur-37"/>
      <feFlood flood-opacity="0.161"/>
      <feComposite operator="in" in2="blur-37"/>
      <feComposite in="SourceGraphic"/>
    </filter>
  </defs>
  <g id="Group_119" data-name="Group 119" transform="translate(-143 -1334)">
    <g transform="matrix(1, 0, 0, 1, 143, 1334)" filter="url(#Rectangle_107)">
      <g id="Rectangle_107-2" data-name="Rectangle 107" transform="translate(9 6)" fill="#f5f5ef" stroke="#707070" stroke-width="1">
        <rect width="1617" height="1392" stroke="none"/>
        <rect x="0.5" y="0.5" width="1616" height="1391" fill="none"/>
      </g>
    </g>
    <g transform="matrix(1, 0, 0, 1, 143, 1334)" filter="url(#Rectangle_108)">
      <rect id="Rectangle_108-2" data-name="Rectangle 108" width="1514" height="177" transform="translate(59 51)" fill="#d97652"/>
    </g>
    <g transform="matrix(1, 0, 0, 1, 143, 1334)" filter="url(#Rectangle_109)">
      <rect id="Rectangle_109-36" data-name="Rectangle 109" width="180" height="134" rx="10" transform="translate(60 340)" fill="#f5f5ef"/>
    </g>
    <g transform="matrix(1, 0, 0, 1, 143, 1334)" filter="url(#Rectangle_109-2)">
      <rect id="Rectangle_109-37" data-name="Rectangle 109" width="180" height="134" rx="10" transform="translate(282 340)" fill="#f5f5ef"/>
    </g>
    <g transform="matrix(1, 0, 0, 1, 143, 1334)" filter="url(#Rectangle_109-3)">
      <rect id="Rectangle_109-38" data-name="Rectangle 109" width="178" height="134" rx="10" transform="translate(506 340)" fill="#f5f5ef"/>
    </g>
    <g transform="matrix(1, 0, 0, 1, 143, 1334)" filter="url(#Rectangle_109-4)">
      <rect id="Rectangle_109-39" data-name="Rectangle 109" width="179" height="134" rx="10" transform="translate(729 340)" fill="#f5f5ef"/>
    </g>
    <g transform="matrix(1, 0, 0, 1, 143, 1334)" filter="url(#Rectangle_109-5)">
      <rect id="Rectangle_109-40" data-name="Rectangle 109" width="179" height="134" rx="10" transform="translate(951 340)" fill="#f5f5ef"/>
    </g>
    <g transform="matrix(1, 0, 0, 1, 143, 1334)" filter="url(#Rectangle_109-6)">
      <rect id="Rectangle_109-41" data-name="Rectangle 109" width="181" height="134" rx="10" transform="translate(1172 340)" fill="#f5f5ef"/>
    </g>
    <g transform="matrix(1, 0, 0, 1, 143, 1334)" filter="url(#Rectangle_109-7)">
      <rect id="Rectangle_109-42" data-name="Rectangle 109" width="178" height="134" rx="10" transform="translate(1396 340)" fill="#f5f5ef"/>
    </g>
    <g transform="matrix(1, 0, 0, 1, 143, 1334)" filter="url(#Rectangle_109-8)">
      <rect id="Rectangle_109-43" data-name="Rectangle 109" width="180" height="133" rx="10" transform="translate(60 503)" fill="#f5f5ef"/>
    </g>
    <g transform="matrix(1, 0, 0, 1, 143, 1334)" filter="url(#Rectangle_109-9)">
      <rect id="Rectangle_109-44" data-name="Rectangle 109" width="180" height="133" rx="10" transform="translate(282 503)" fill="#f5f5ef"/>
    </g>
    <g transform="matrix(1, 0, 0, 1, 143, 1334)" filter="url(#Rectangle_109-10)">
      <rect id="Rectangle_109-45" data-name="Rectangle 109" width="178" height="133" rx="10" transform="translate(506 503)" fill="#f5f5ef"/>
    </g>
    <g transform="matrix(1, 0, 0, 1, 143, 1334)" filter="url(#Rectangle_109-11)">
      <rect id="Rectangle_109-46" data-name="Rectangle 109" width="179" height="133" rx="10" transform="translate(729 503)" fill="#f5f5ef"/>
    </g>
    <g transform="matrix(1, 0, 0, 1, 143, 1334)" filter="url(#Rectangle_109-12)">
      <rect id="Rectangle_109-47" data-name="Rectangle 109" width="179" height="133" rx="10" transform="translate(951 503)" fill="#f5f5ef"/>
    </g>
    <g transform="matrix(1, 0, 0, 1, 143, 1334)" filter="url(#Rectangle_109-13)">
      <rect id="Rectangle_109-48" data-name="Rectangle 109" width="181" height="133" rx="10" transform="translate(1172 503)" fill="#f5f5ef"/>
    </g>
    <g transform="matrix(1, 0, 0, 1, 143, 1334)" filter="url(#Rectangle_109-14)">
      <rect id="Rectangle_109-49" data-name="Rectangle 109" width="178" height="133" rx="10" transform="translate(1396 503)" fill="#f5f5ef"/>
    </g>
    <g transform="matrix(1, 0, 0, 1, 143, 1334)" filter="url(#Rectangle_109-15)">
      <rect id="Rectangle_109-50" data-name="Rectangle 109" width="180" height="134" rx="10" transform="translate(60 665)" fill="#f5f5ef"/>
    </g>
    <g transform="matrix(1, 0, 0, 1, 143, 1334)" filter="url(#Rectangle_109-16)">
      <rect id="Rectangle_109-51" data-name="Rectangle 109" width="180" height="134" rx="10" transform="translate(282 665)" fill="#f5f5ef"/>
    </g>
    <g transform="matrix(1, 0, 0, 1, 143, 1334)" filter="url(#Rectangle_109-17)">
      <rect id="Rectangle_109-52" data-name="Rectangle 109" width="178" height="134" rx="10" transform="translate(506 665)" fill="#f5f5ef"/>
    </g>
    <g transform="matrix(1, 0, 0, 1, 143, 1334)" filter="url(#Rectangle_109-18)">
      <rect id="Rectangle_109-53" data-name="Rectangle 109" width="179" height="134" rx="10" transform="translate(729 665)" fill="#f5f5ef"/>
    </g>
    <g transform="matrix(1, 0, 0, 1, 143, 1334)" filter="url(#Rectangle_109-19)">
      <rect id="Rectangle_109-54" data-name="Rectangle 109" width="179" height="134" rx="10" transform="translate(951 665)" fill="#f5f5ef"/>
    </g>
    <g transform="matrix(1, 0, 0, 1, 143, 1334)" filter="url(#Rectangle_109-20)">
      <rect id="Rectangle_109-55" data-name="Rectangle 109" width="181" height="134" rx="10" transform="translate(1172 665)" fill="#f5f5ef"/>
    </g>
    <g transform="matrix(1, 0, 0, 1, 143, 1334)" filter="url(#Rectangle_109-21)">
      <rect id="Rectangle_109-56" data-name="Rectangle 109" width="178" height="134" rx="10" transform="translate(1396 665)" fill="#f5f5ef"/>
    </g>
    <g transform="matrix(1, 0, 0, 1, 143, 1334)" filter="url(#Rectangle_109-22)">
      <rect id="Rectangle_109-57" data-name="Rectangle 109" width="180" height="134" rx="10" transform="translate(60 828)" fill="#f5f5ef"/>
    </g>
    <g transform="matrix(1, 0, 0, 1, 143, 1334)" filter="url(#Rectangle_109-23)">
      <rect id="Rectangle_109-58" data-name="Rectangle 109" width="180" height="134" rx="10" transform="translate(282 828)" fill="#f5f5ef"/>
    </g>
    <g transform="matrix(1, 0, 0, 1, 143, 1334)" filter="url(#Rectangle_109-24)">
      <rect id="Rectangle_109-59" data-name="Rectangle 109" width="178" height="134" rx="10" transform="translate(506 828)" fill="#f5f5ef"/>
    </g>
    <g transform="matrix(1, 0, 0, 1, 143, 1334)" filter="url(#Rectangle_109-25)">
      <rect id="Rectangle_109-60" data-name="Rectangle 109" width="179" height="134" rx="10" transform="translate(729 828)" fill="#f5f5ef"/>
    </g>
    <g transform="matrix(1, 0, 0, 1, 143, 1334)" filter="url(#Rectangle_109-26)">
      <rect id="Rectangle_109-61" data-name="Rectangle 109" width="179" height="134" rx="10" transform="translate(951 828)" fill="#f5f5ef"/>
    </g>
    <g transform="matrix(1, 0, 0, 1, 143, 1334)" filter="url(#Rectangle_109-27)">
      <rect id="Rectangle_109-62" data-name="Rectangle 109" width="181" height="134" rx="10" transform="translate(1172 828)" fill="#f5f5ef"/>
    </g>
    <g transform="matrix(1, 0, 0, 1, 143, 1334)" filter="url(#Rectangle_109-28)">
      <rect id="Rectangle_109-63" data-name="Rectangle 109" width="178" height="134" rx="10" transform="translate(1396 828)" fill="#f5f5ef"/>
    </g>
    <g transform="matrix(1, 0, 0, 1, 143, 1334)" filter="url(#Rectangle_109-29)">
      <rect id="Rectangle_109-64" data-name="Rectangle 109" width="180" height="135" rx="10" transform="translate(60 989)" fill="#f5f5ef"/>
    </g>
    <g transform="matrix(1, 0, 0, 1, 143, 1334)" filter="url(#Rectangle_109-30)">
      <rect id="Rectangle_109-65" data-name="Rectangle 109" width="180" height="135" rx="10" transform="translate(282 989)" fill="#f5f5ef"/>
    </g>
    <g transform="matrix(1, 0, 0, 1, 143, 1334)" filter="url(#Rectangle_109-31)">
      <rect id="Rectangle_109-66" data-name="Rectangle 109" width="178" height="135" rx="10" transform="translate(506 989)" fill="#f5f5ef"/>
    </g>
    <g transform="matrix(1, 0, 0, 1, 143, 1334)" filter="url(#Rectangle_109-32)">
      <rect id="Rectangle_109-67" data-name="Rectangle 109" width="179" height="135" rx="10" transform="translate(729 989)" fill="#f5f5ef"/>
    </g>
    <g transform="matrix(1, 0, 0, 1, 143, 1334)" filter="url(#Rectangle_109-33)">
      <rect id="Rectangle_109-68" data-name="Rectangle 109" width="179" height="135" rx="10" transform="translate(951 989)" fill="#f5f5ef"/>
    </g>
    <g transform="matrix(1, 0, 0, 1, 143, 1334)" filter="url(#Rectangle_109-34)">
      <rect id="Rectangle_109-69" data-name="Rectangle 109" width="181" height="135" rx="10" transform="translate(1172 989)" fill="#f5f5ef"/>
    </g>
    <g transform="matrix(1, 0, 0, 1, 143, 1334)" filter="url(#Rectangle_109-35)">
      <rect id="Rectangle_109-70" data-name="Rectangle 109" width="178" height="135" rx="10" transform="translate(1396 989)" fill="#f5f5ef"/>
    </g>
    <text id="April_2021" data-name="April 2021" transform="translate(956.288 1487.827)" fill="#f5f5ef" font-size="43" font-family="FuturaPT-Heavy, Futura PT" font-weight="800"><tspan x="-101.63" y="0">April 2021</tspan></text>
    <text id="MA" transform="translate(286 1637)" fill="#3c5943" font-size="53" font-family="FuturaPT-Heavy, Futura PT" font-weight="800"><tspan x="-41.42" y="0">MA</tspan></text>
    <text id="DI" transform="translate(510 1637)" fill="#3c5943" font-size="53" font-family="FuturaPT-Heavy, Futura PT" font-weight="800"><tspan x="-26.262" y="0">DI</tspan></text>
    <text id="WO" transform="translate(734 1638)" fill="#3c5943" font-size="54" font-family="FuturaPT-Heavy, Futura PT" font-weight="800"><tspan x="-48.924" y="0">WO</tspan></text>
    <text id="DO" transform="translate(958 1636)" fill="#3c5943" font-size="52" font-family="FuturaPT-Heavy, Futura PT" font-weight="800"><tspan x="-38.87" y="0">DO</tspan></text>
    <text id="VR" transform="translate(1182 1638)" fill="#3c5943" font-size="54" font-family="FuturaPT-Heavy, Futura PT" font-weight="800"><tspan x="-34.695" y="0">VR</tspan></text>
    <text id="ZA" transform="translate(1406 1638)" fill="#3c5943" font-size="54" font-family="FuturaPT-Heavy, Futura PT" font-weight="800"><tspan x="-34.911" y="0">ZA</tspan></text>
    <text id="ZO" transform="translate(1630 1637)" fill="#3c5943" font-size="53" font-family="FuturaPT-Heavy, Futura PT" font-weight="800"><tspan x="-37.1" y="0">ZO</tspan></text>
    <g id="next" transform="translate(320.83 1514.399) rotate(180)">
      <g id="Group_2" data-name="Group 2" transform="translate(0 0)">
        <path id="Path_15" data-name="Path 15" d="M42.752,38.214,5.349.914A3.135,3.135,0,0,0,.922,5.354L36.1,40.433.921,75.513a3.135,3.135,0,0,0,4.428,4.438l37.4-37.3a3.133,3.133,0,0,0,0-4.438Z" fill="#f5f5ef"/>
      </g>
    </g>
    <g id="next-2" data-name="next" transform="translate(1598.784 1431.744)">
      <g id="Group_2-2" data-name="Group 2" transform="translate(-0.001 0)">
        <path id="Path_15-2" data-name="Path 15" d="M160.494,38.214l-37.4-37.3a3.135,3.135,0,0,0-4.427,4.439l35.177,35.08-35.178,35.08a3.135,3.135,0,0,0,4.428,4.438l37.4-37.3a3.133,3.133,0,0,0,0-4.438Z" transform="translate(-117.742 0)" fill="#f5f5ef"/>
      </g>
    </g>
    <text id="_29" data-name="29" transform="translate(291 1731)" fill="#c3c3c3" font-size="38" font-family="FuturaPT-Book, Futura PT"><tspan x="-20.881" y="0">29</tspan></text>
    <text id="_05" data-name="05" transform="translate(293 1893)" fill="#00554e" font-size="38" font-family="FuturaPT-Book, Futura PT"><tspan x="-21.584" y="0">05</tspan></text>
    <text id="_06" data-name="06" transform="translate(515 1893)" fill="#00554e" font-size="38" font-family="FuturaPT-Book, Futura PT"><tspan x="-21.584" y="0">06</tspan></text>
    <text id="_30" data-name="30" transform="translate(515 1731)" fill="#c3c3c3" font-size="38" font-family="FuturaPT-Book, Futura PT"><tspan x="-21.584" y="0">30</tspan></text>
    <text id="_31" data-name="31" transform="translate(738 1731)" fill="#c3c3c3" font-size="38" font-family="FuturaPT-Book, Futura PT"><tspan x="-18.734" y="0">31</tspan></text>
    <text id="_07" data-name="07" transform="translate(738 1893)" fill="#00554e" font-size="38" font-family="FuturaPT-Book, Futura PT"><tspan x="-20.634" y="0">07</tspan></text>
    <text id="_08" data-name="08" transform="translate(960 1893)" fill="#00554e" font-size="38" font-family="FuturaPT-Book, Futura PT"><tspan x="-21.584" y="0">08</tspan></text>
    <text id="_01" data-name="01" transform="translate(960 1731)" fill="#00554e" font-size="38" font-family="FuturaPT-Book, Futura PT"><tspan x="-19.684" y="0">01</tspan></text>
    <text id="_12" data-name="12" transform="translate(293 2055)" fill="#00554e" font-size="38" font-family="FuturaPT-Book, Futura PT"><tspan x="-18.734" y="0">12</tspan></text>
    <text id="_13" data-name="13" transform="translate(515 2055)" fill="#00554e" font-size="38" font-family="FuturaPT-Book, Futura PT"><tspan x="-18.981" y="0">13</tspan></text>
    <text id="_14" data-name="14" transform="translate(738 2055)" fill="#00554e" font-size="38" font-family="FuturaPT-Book, Futura PT"><tspan x="-19.209" y="0">14</tspan></text>
    <text id="_15" data-name="15" transform="translate(960 2055)" fill="#00554e" font-size="38" font-family="FuturaPT-Book, Futura PT"><tspan x="-19.209" y="0">15</tspan></text>
    <text id="_19" data-name="19" transform="translate(293 2218)" fill="#00554e" font-size="38" font-family="FuturaPT-Book, Futura PT"><tspan x="-19.456" y="0">19</tspan></text>
    <text id="_26" data-name="26" transform="translate(291 2380)" fill="#00554e" font-size="38" font-family="FuturaPT-Book, Futura PT"><tspan x="-20.881" y="0">26</tspan></text>
    <text id="_20" data-name="20" transform="translate(515 2218)" fill="#00554e" font-size="38" font-family="FuturaPT-Book, Futura PT"><tspan x="-21.109" y="0">20</tspan></text>
    <text id="_27" data-name="27" transform="translate(513 2380)" fill="#00554e" font-size="38" font-family="FuturaPT-Book, Futura PT"><tspan x="-20.387" y="0">27</tspan></text>
    <text id="_21" data-name="21" transform="translate(738 2218)" fill="#00554e" font-size="38" font-family="FuturaPT-Book, Futura PT"><tspan x="-18.734" y="0">21</tspan></text>
    <text id="_28" data-name="28" transform="translate(736 2380)" fill="#00554e" font-size="38" font-family="FuturaPT-Book, Futura PT"><tspan x="-20.862" y="0">28</tspan></text>
    <text id="_22" data-name="22" transform="translate(960 2218)" fill="#00554e" font-size="38" font-family="FuturaPT-Book, Futura PT"><tspan x="-20.862" y="0">22</tspan></text>
    <text id="_29-2" data-name="29" transform="translate(958 2380)" fill="#00554e" font-size="38" font-family="FuturaPT-Book, Futura PT"><tspan x="-20.881" y="0">29</tspan></text>
    <text id="_02" data-name="02" transform="translate(1186 1732)" fill="#00554e" font-size="38" font-family="FuturaPT-Book, Futura PT"><tspan x="-21.584" y="0">02</tspan></text>
    <text id="_03" data-name="03" transform="translate(1409 1732)" fill="#00554e" font-size="38" font-family="FuturaPT-Book, Futura PT"><tspan x="-21.584" y="0">03</tspan></text>
    <text id="_04" data-name="04" transform="translate(1631 1732)" fill="#00554e" font-size="38" font-family="FuturaPT-Book, Futura PT"><tspan x="-21.109" y="0">04</tspan></text>
    <text id="_16" data-name="16" transform="translate(1185 2055)" fill="#00554e" font-size="38" font-family="FuturaPT-Book, Futura PT"><tspan x="-19.684" y="0">16</tspan></text>
    <text id="_17" data-name="17" transform="translate(1408 2055)" fill="#00554e" font-size="38" font-family="FuturaPT-Book, Futura PT"><tspan x="-19.456" y="0">17</tspan></text>
    <text id="_18" data-name="18" transform="translate(1630 2055)" fill="#00554e" font-size="38" font-family="FuturaPT-Book, Futura PT"><tspan x="-19.209" y="0">18</tspan></text>
    <text id="_23" data-name="23" transform="translate(1185 2218)" fill="#00554e" font-size="38" font-family="FuturaPT-Book, Futura PT"><tspan x="-20.862" y="0">23</tspan></text>
    <text id="_30-2" data-name="30" transform="translate(1183 2380)" fill="#00554e" font-size="38" font-family="FuturaPT-Book, Futura PT"><tspan x="-21.584" y="0">30</tspan></text>
    <text id="_24" data-name="24" transform="translate(1408 2218)" fill="#00554e" font-size="38" font-family="FuturaPT-Book, Futura PT"><tspan x="-20.634" y="0">24</tspan></text>
    <text id="_01-2" data-name="01" transform="translate(1406 2380)" fill="#c3c3c3" font-size="38" font-family="FuturaPT-Book, Futura PT"><tspan x="-19.684" y="0">01</tspan></text>
    <text id="_25" data-name="25" transform="translate(1630 2218)" fill="#00554e" font-size="38" font-family="FuturaPT-Book, Futura PT"><tspan x="-20.881" y="0">25</tspan></text>
    <text id="_02-2" data-name="02" transform="translate(1628 2380)" fill="#c3c3c3" font-size="38" font-family="FuturaPT-Book, Futura PT"><tspan x="-21.584" y="0">02</tspan></text>
    <text id="_09" data-name="09" transform="translate(1183 1894)" fill="#00554e" font-size="38" font-family="FuturaPT-Book, Futura PT"><tspan x="-21.584" y="0">09</tspan></text>
    <text id="_10" data-name="10" transform="translate(1406 1894)" fill="#00554e" font-size="38" font-family="FuturaPT-Book, Futura PT"><tspan x="-20.387" y="0">10</tspan></text>
    <text id="_11" data-name="11" transform="translate(1628 1894)" fill="#00554e" font-size="38" font-family="FuturaPT-Book, Futura PT"><tspan x="-17.309" y="0">11</tspan></text>
    <rect id="Rectangle_110" data-name="Rectangle 110" width="144" height="45" rx="10" transform="translate(1334 1911)" fill="#d97652"/>
    <rect id="Rectangle_111" data-name="Rectangle 111" width="144" height="45" rx="10" transform="translate(1556 2233)" fill="#d97652"/>
    <text id="Workshop_Hout" data-name="Workshop Hout" transform="translate(1343 1922)" fill="#f5f5ef" font-size="15" font-family="FuturaPT-Book, Futura PT"><tspan x="0" y="15">Workshop Hout</tspan></text>
    <text id="Grofmarkt" transform="translate(1567 2244)" fill="#f5f5ef" font-size="15" font-family="FuturaPT-Book, Futura PT"><tspan x="0" y="15">Grofmarkt</tspan></text>
    <circle id="Ellipse_18" data-name="Ellipse 18" cx="8.5" cy="8.5" r="8.5" transform="translate(446 1939)" fill="#eacaff"/>
    <circle id="Ellipse_20" data-name="Ellipse 20" cx="8.5" cy="8.5" r="8.5" transform="translate(446 2101)" fill="#eacaff"/>
    <circle id="Ellipse_21" data-name="Ellipse 21" cx="8.5" cy="8.5" r="8.5" transform="translate(446 2261)" fill="#eacaff"/>
    <circle id="Ellipse_22" data-name="Ellipse 22" cx="8.5" cy="8.5" r="8.5" transform="translate(446 2426)" fill="#eacaff"/>
    <circle id="Ellipse_19" data-name="Ellipse 19" cx="8.5" cy="8.5" r="8.5" transform="translate(467 1939)" fill="#ffcaca"/>
    <circle id="Ellipse_23" data-name="Ellipse 23" cx="8.5" cy="8.5" r="8.5" transform="translate(467 2261)" fill="#ffcaca"/>
    <circle id="Ellipse_24" data-name="Ellipse 24" cx="8.5" cy="8.5" r="8.5" transform="translate(488 2261)" fill="#f3e7bf"/>
    <circle id="Ellipse_25" data-name="Ellipse 25" cx="8.5" cy="8.5" r="8.5" transform="translate(893 2261)" fill="#b8e5ff"/>
    <circle id="Ellipse_26" data-name="Ellipse 26" cx="8.5" cy="8.5" r="8.5" transform="translate(893 1939)" fill="#bfe0f3"/>
    <circle id="Ellipse_27" data-name="Ellipse 27" cx="8.5" cy="8.5" r="8.5" transform="translate(1110 2261)" fill="#bff3ca"/>
    <rect id="Rectangle_112" data-name="Rectangle 112" width="144" height="45" rx="10" transform="translate(666 2233)" fill="#d97652"/>
    <text id="Ophaling_van_Grofgerief" data-name="Ophaling van Grofgerief" transform="translate(674 2235)" fill="#f5f5ef" font-size="15" font-family="FuturaPT-Book, Futura PT"><tspan x="0" y="15">Ophaling van </tspan><tspan x="0" y="35">Grofgerief</tspan></text>
    <circle id="Ellipse_33" data-name="Ellipse 33" cx="8.5" cy="8.5" r="8.5" transform="translate(446 1777)" fill="#eacaff"/>
    <rect id="Rectangle_113" data-name="Rectangle 113" width="260" height="42" rx="16" transform="translate(203 2548)" fill="#eacaff"/>
    <rect id="Rectangle_114" data-name="Rectangle 114" width="260" height="42" rx="16" transform="translate(518 2548)" fill="#ffcaca"/>
    <rect id="Rectangle_115" data-name="Rectangle 115" width="260" height="42" rx="16" transform="translate(833 2548)" fill="#f3e7bf"/>
    <rect id="Rectangle_116" data-name="Rectangle 116" width="260" height="42" rx="16" transform="translate(1148 2548)" fill="#b8e5ff"/>
    <rect id="Rectangle_117" data-name="Rectangle 117" width="260" height="42" rx="16" transform="translate(1463 2548)" fill="#bff3ca"/>
    <text id="Ophaling_van_Huisvuil" data-name="Ophaling van Huisvuil" transform="translate(222 2559)" fill="#3c5943" font-size="15" font-family="FuturaPT-Book, Futura PT"><tspan x="0" y="15">Ophaling van Huisvuil</tspan></text>
    <text id="Ophaling_van_PMD" data-name="Ophaling van PMD" transform="translate(537 2559)" fill="#3c5943" font-size="15" font-family="FuturaPT-Book, Futura PT"><tspan x="0" y="15">Ophaling van PMD</tspan></text>
    <text id="Ophaling_van_Papier_Karton" data-name="Ophaling van Papier &amp; Karton" transform="translate(862 2559)" fill="#3c5943" font-size="15" font-family="FuturaPT-Book, Futura PT"><tspan x="0" y="15">Ophaling van Papier &amp; Karton</tspan></text>
    <text id="Ophaling_van_grofvuil_containerpark_" data-name="Ophaling van grofvuil (containerpark)" transform="translate(1167 2559)" fill="#3c5943" font-size="15" font-family="FuturaPT-Book, Futura PT"><tspan x="0" y="15">Ophaling van grofvuil (containerpark)</tspan></text>
    <text id="Ophaling_van_Snoeihout" data-name="Ophaling van Snoeihout" transform="translate(1480 2559)" fill="#3c5943" font-size="15" font-family="FuturaPT-Book, Futura PT"><tspan x="0" y="15">Ophaling van Snoeihout</tspan></text>
    <g id="next-3" data-name="next" transform="translate(1675.001 2244.423)">
      <g id="Group_2-3" data-name="Group 2" transform="translate(-0.001 0)">
        <path id="Path_15-3" data-name="Path 15" d="M129.983,10.942,119.274.262a.9.9,0,0,0-1.267,1.271l10.072,10.044L118.006,21.622a.9.9,0,0,0,1.268,1.271l10.71-10.68a.9.9,0,0,0,0-1.271Z" transform="translate(-117.742 0)" fill="#f5f5ef"/>
      </g>
    </g>
    <g id="next-4" data-name="next" transform="translate(1457.001 1921.923)">
      <g id="Group_2-4" data-name="Group 2" transform="translate(-0.001 0)">
        <path id="Path_15-4" data-name="Path 15" d="M129.983,10.942,119.274.262a.9.9,0,0,0-1.267,1.271l10.072,10.044L118.006,21.622a.9.9,0,0,0,1.268,1.271l10.71-10.68a.9.9,0,0,0,0-1.271Z" transform="translate(-117.742 0)" fill="#f5f5ef"/>
      </g>
    </g>
    <g id="next-5" data-name="next" transform="translate(788.001 2244.423)">
      <g id="Group_2-5" data-name="Group 2" transform="translate(-0.001 0)">
        <path id="Path_15-5" data-name="Path 15" d="M129.983,10.942,119.274.262a.9.9,0,0,0-1.267,1.271l10.072,10.044L118.006,21.622a.9.9,0,0,0,1.268,1.271l10.71-10.68a.9.9,0,0,0,0-1.271Z" transform="translate(-117.742 0)" fill="#f5f5ef"/>
      </g>
    </g>
    <rect id="Rectangle_118" data-name="Rectangle 118" width="144" height="45" rx="10" transform="translate(1334 2237)" fill="#d97652"/>
    <text id="Workshop_Textiel" data-name="Workshop Textiel" transform="translate(1343 2248)" fill="#f5f5ef" font-size="15" font-family="FuturaPT-Book, Futura PT"><tspan x="0" y="15">Workshop Textiel</tspan></text>
    <g id="next-6" data-name="next" transform="translate(1457.001 2247.923)">
      <g id="Group_2-6" data-name="Group 2" transform="translate(-0.001 0)">
        <path id="Path_15-6" data-name="Path 15" d="M129.983,10.942,119.274.262a.9.9,0,0,0-1.267,1.271l10.072,10.044L118.006,21.622a.9.9,0,0,0,1.268,1.271l10.71-10.68a.9.9,0,0,0,0-1.271Z" transform="translate(-117.742 0)" fill="#f5f5ef"/>
      </g>
    </g>
  </g>
</svg>
