<svg id="Laag_1" data-name="Laag 1" xmlns="http://www.w3.org/2000/svg" viewBox="0 0 742.82 155.93"><defs><style>.cls-1{fill:#fff;}</style></defs><title>logogrofgerief-wit</title><path class="cls-1" d="M-121.87,233c0-31.8,25-58.08,57-58.08a55.08,55.08,0,0,1,40,16.75l-14.25,12.45a36.38,36.38,0,0,0-25.75-10.87c-21,0-37,18.17-37,39.75,0,21.26,15.9,39.76,37.32,39.76,16.55,0,31.8-10.71,31.8-25.15h-32V231.09h53.54c0,40.73-21.9,59.55-53.06,59.55C-97.21,290.64-121.87,264.51-121.87,233Z" transform="translate(121.87 -171.7)"/><path class="cls-1" d="M54.83,213.56l-3.7,17.85a23.57,23.57,0,0,0-11-2.76C27.8,228.65,21,241,21,262.24V288.7H2V212.91H20.81v16.23C24.87,216.48,33.15,211,42.56,211,47,211,51.91,211.94,54.83,213.56Z" transform="translate(121.87 -171.7)"/><path class="cls-1" d="M56.94,250.7c0-24,18.66-39.75,40.24-39.75s40.4,15.75,40.4,39.75-18.82,39.92-40.4,39.92S56.94,274.7,56.94,250.7Zm61.66,0c0-13-9.74-22.23-21.42-22.23S75.92,237.7,75.92,250.7c0,13.31,9.58,22.39,21.26,22.39S118.6,264,118.6,250.7Z" transform="translate(121.87 -171.7)"/><path class="cls-1" d="M192.91,189.22c-12.82,0-16.55,7.14-16.39,16.39v7.3H193.4v14.93H176.52V288.7H157.7V227.84H143.26V212.91H157.7v-6.32c0-21.75,10.43-34.89,31.48-34.89h8.95v17.52Z" transform="translate(121.87 -171.7)"/><path class="cls-1" d="M260.57,212.91H279.4v65.88c0,34.08-16.55,48.84-42.52,48.84A39.39,39.39,0,0,1,201,305.57l15.58-7.14a23.31,23.31,0,0,0,20.28,12.17c14.61,0,23.69-8.28,23.69-30v-1.79c-5.35,7.79-15.9,11.85-25.15,11.85-20,0-37.32-15.74-37.32-39.92,0-24.34,17.2-39.75,37.16-39.75,9.74,0,20,4,25.31,11.84Zm-.32,37.65a22,22,0,0,0-21.91-22.07c-11.68,0-21.21,9.41-21.21,22.07s9.57,22.55,21.25,22.55a22.07,22.07,0,0,0,21.88-22.25C260.26,250.76,260.25,250.66,260.25,250.56Z" transform="translate(121.87 -171.7)"/><path class="cls-1" d="M372,257.37H313.3c2.11,10.55,10.23,16.23,21.59,16.23,8.11,0,16.06-3.57,20.44-9.73L368,273.44c-7,11-20.45,17.2-34.24,17.2-22.56,0-39.75-16.23-39.75-39.92,0-24.18,18-39.75,39.75-39.75,21.58,0,38.62,15.41,38.62,39.1C372.37,252.18,372.2,254.62,372,257.37Zm-18.33-13.14c-1.14-10.38-9.25-16.53-19.8-16.53-10.06,0-18.33,5-20.61,16.55Z" transform="translate(121.87 -171.7)"/><path class="cls-1" d="M439.38,213.56l-3.73,17.85a23.57,23.57,0,0,0-11-2.76c-12.33,0-19.14,12.34-19.14,33.59V288.7h-19V212.91h18.82v16.23c4.06-12.66,12.34-18.17,21.75-18.17C431.59,211,436.46,211.94,439.38,213.56Z" transform="translate(121.87 -171.7)"/><path class="cls-1" d="M445.7,186.14c0-6.65,5.68-11.52,12.34-11.52s12.17,4.87,12.17,11.52c0,6.49-5.36,11.52-12.17,11.52S445.7,192.63,445.7,186.14Zm2.93,102.56V212.91h18.82V288.7Z" transform="translate(121.87 -171.7)"/><path class="cls-1" d="M560.13,257.37H501.36c2.11,10.55,10.22,16.23,21.58,16.23,8.11,0,16.07-3.57,20.45-9.73L556,273.44c-7,11-20.44,17.2-34.24,17.2-22.55,0-39.75-16.23-39.75-39.92,0-24.18,18-39.75,39.75-39.75s38.62,15.41,38.62,39.1C560.42,252.18,560.26,254.62,560.13,257.37Zm-18.37-13.14c-1.13-10.38-9.25-16.53-19.79-16.53-10.06,0-18.34,5-20.61,16.55Z" transform="translate(121.87 -171.7)"/><path class="cls-1" d="M615.75,189.22c-12.81,0-16.55,7.14-16.39,16.39v7.3h16.88v14.93H599.36V288.7H580.54V227.84H566.13V212.91h14.44v-6.32c0-21.75,10.36-34.89,31.45-34.89H621v17.52Z" transform="translate(121.87 -171.7)"/></svg>