<svg id="Laag_2" data-name="Laag 2" xmlns="http://www.w3.org/2000/svg" width="337.352" height="70.838" viewBox="0 0 337.352 70.838">
  <g id="Laag_1" data-name="Laag 1">
    <path id="Path_41" data-name="Path 41" d="M0,29.8A26.06,26.06,0,0,1,25.864,3.418a25.029,25.029,0,0,1,18.2,7.591L37.58,16.684a16.538,16.538,0,0,0-11.716-4.939C16.357,11.746,9.072,20,9.072,29.8c0,9.653,7.221,18.054,16.947,18.054,7.509,0,14.454-4.861,14.454-11.423H25.937V28.916H50.255c0,18.514-9.946,27.044-24.112,27.044A25.926,25.926,0,0,1,0,29.8Z" transform="translate(0 -1.946)" fill="#f5f5ef"/>
    <path id="Path_42" data-name="Path 42" d="M154.623,42.6l-1.7,8.116a10.764,10.764,0,0,0-5.012-1.253c-5.6,0-8.693,5.6-8.693,15.255V76.722H130.61V42.3h8.551V49.67c1.843-5.744,5.6-8.25,9.873-8.25A12.6,12.6,0,0,1,154.623,42.6Z" transform="translate(-74.374 -23.586)" fill="#f5f5ef"/>
    <path id="Path_43" data-name="Path 43" d="M188.6,59.474c0-10.906,8.478-18.054,18.277-18.054s18.346,7.139,18.346,18.054S216.677,77.6,206.877,77.6,188.6,70.375,188.6,59.474Zm27.987,0a9.761,9.761,0,0,0-9.726-10.1c-5.3,0-9.653,4.2-9.653,10.1,0,6.028,4.349,10.166,9.653,10.166s9.744-4.125,9.744-10.166Z" transform="translate(-107.396 -23.586)" fill="#f5f5ef"/>
    <path id="Path_44" data-name="Path 44" d="M302.2,7.957c-5.821,0-7.518,3.242-7.444,7.444v3.315h7.664v6.777h-7.664V53.127h-8.534V25.494H279.66V18.717h6.557V15.845C286.217,5.968,290.932,0,300.512,0h4.052V7.957Z" transform="translate(-159.248)" fill="#f5f5ef"/>
    <path id="Path_45" data-name="Path 45" d="M365.876,42.331h8.551V72.268c0,15.474-7.518,22.183-19.307,22.183a17.868,17.868,0,0,1-16.288-10.024l7.07-3.264a10.592,10.592,0,0,0,9.214,5.528c6.631,0,10.764-3.759,10.764-13.632v-.792c-2.428,3.539-7.221,5.382-11.419,5.382-9.063,0-16.951-7.147-16.951-18.127,0-11.057,7.815-18.054,16.878-18.054,4.418,0,9.063,1.839,11.492,5.378Zm-.146,17.093A10.006,10.006,0,0,0,355.8,49.405a9.724,9.724,0,0,0-9.653,10.019c0,5.744,4.323,10.26,9.653,10.26a10.028,10.028,0,0,0,9.924-10.26Z" transform="translate(-192.19 -23.614)" fill="#f5f5ef"/>
    <path id="Path_46" data-name="Path 46" d="M474.1,62.492H447.4c.956,4.792,4.641,7.371,9.8,7.371a11.428,11.428,0,0,0,9.283-4.422l5.748,4.349c-3.169,5.007-9.283,7.81-15.548,7.81-10.243,0-18.054-7.371-18.054-18.127,0-10.979,8.181-18.054,18.054-18.054,9.8,0,17.537,7,17.537,17.756C474.229,60.137,474.156,61.239,474.1,62.492Zm-8.34-5.968c-.517-4.736-4.2-7.518-8.99-7.518-4.568-.017-8.327,2.286-9.365,7.518Z" transform="translate(-249.771 -23.586)" fill="#f5f5ef"/>
    <path id="Path_47" data-name="Path 47" d="M560.243,42.6l-1.7,8.116a10.764,10.764,0,0,0-5.012-1.253c-5.6,0-8.693,5.6-8.693,15.255V76.722H536.23V42.3h8.547V49.67c1.843-5.744,5.6-8.25,9.873-8.25A12.609,12.609,0,0,1,560.243,42.6Z" transform="translate(-305.348 -23.586)" fill="#f5f5ef"/>
    <path id="Path_48" data-name="Path 48" d="M598.67,8.311a5.391,5.391,0,0,1,5.6-5.231A5.276,5.276,0,0,1,609.8,8.311a5.321,5.321,0,0,1-5.528,5.231A5.43,5.43,0,0,1,598.67,8.311ZM600,54.881V20.471h8.551V54.881Z" transform="translate(-340.904 -1.754)" fill="#f5f5ef"/>
    <path id="Path_49" data-name="Path 49" d="M672.426,62.492h-26.7c.956,4.792,4.641,7.371,9.8,7.371a11.428,11.428,0,0,0,9.283-4.422l5.748,4.349c-3.169,5.007-9.283,7.81-15.548,7.81-10.243,0-18.054-7.371-18.054-18.127,0-10.979,8.181-18.054,18.054-18.054,9.8,0,17.537,7,17.537,17.756C672.572,60.137,672.5,61.239,672.426,62.492ZM664.1,56.524c-.517-4.736-4.2-7.518-8.99-7.518-4.568,0-8.327,2.286-9.356,7.518Z" transform="translate(-362.708 -23.586)" fill="#f5f5ef"/>
    <path id="Path_50" data-name="Path 50" d="M748.2,7.957c-5.821,0-7.518,3.242-7.444,7.444v3.315h7.664v6.777h-7.664V53.127h-8.529V25.494H725.67V18.717h6.557V15.845C732.227,5.968,736.964,0,746.522,0h4.052V7.957Z" transform="translate(-413.222)" fill="#f5f5ef"/>
    <path id="Path_51" data-name="Path 51" d="M52.706,67.6l-14.6-8.43,14.6-8.426Z" transform="translate(-21.701 -28.893)" fill="#f5f5ef"/>
  </g>
</svg>
