<svg xmlns="http://www.w3.org/2000/svg" viewBox="0 0 742.82 155.93"><defs><style>.cls-1{fill:#3c5943;}.cls-2{fill:#888c69;}</style></defs><g id="Laag_2" data-name="Laag 2"><g id="Laag_1-2" data-name="Laag 1"><path class="cls-1" d="M0,61.33C0,29.53,25,3.25,57,3.25A55.11,55.11,0,0,1,97,20L82.75,32.45A36.45,36.45,0,0,0,57,21.58C36,21.58,20,39.75,20,61.33c0,21.26,15.9,39.76,37.32,39.76,16.55,0,31.8-10.71,31.8-25.15h-32V59.39h53.54c0,40.73-21.9,59.55-53.06,59.55C24.66,118.94,0,92.81,0,61.33Z"/><path class="cls-1" d="M176.7,41.86,173,59.71a23.74,23.74,0,0,0-11-2.76c-12.33,0-19.14,12.34-19.14,33.59V117h-19V41.21h18.82V57.44c4.06-12.66,12.34-18.17,21.75-18.17C168.91,39.27,173.78,40.24,176.7,41.86Z"/><path class="cls-1" d="M178.81,79c0-24,18.66-39.75,40.24-39.75S259.45,55,259.45,79s-18.82,39.92-40.4,39.92S178.81,103,178.81,79Zm61.66,0c0-13-9.74-22.23-21.42-22.23S197.79,66,197.79,79c0,13.31,9.58,22.39,21.26,22.39S240.47,92.33,240.47,79Z"/><path class="cls-1" d="M314.78,17.52c-12.82,0-16.55,7.14-16.39,16.39v7.3h16.88V56.14H298.39V117H279.57V56.14H265.13V41.21h14.44V34.89C279.57,13.14,290,0,311.05,0H320V17.52Z"/><path class="cls-2" d="M382.44,41.21h18.83v65.88c0,34.08-16.55,48.84-42.52,48.84a39.35,39.35,0,0,1-35.86-22.06l15.58-7.14a23.3,23.3,0,0,0,20.28,12.17c14.61,0,23.69-8.28,23.69-30v-1.79c-5.35,7.79-15.9,11.85-25.15,11.85-20,0-37.32-15.74-37.32-39.92,0-24.34,17.2-39.75,37.16-39.75,9.74,0,20,4,25.31,11.84Zm-.32,37.65a22,22,0,0,0-21.91-22.07C348.53,56.79,339,66.2,339,78.86s9.57,22.55,21.25,22.55A22.06,22.06,0,0,0,382.12,78.86Z"/><path class="cls-2" d="M493.91,85.67H435.17c2.11,10.55,10.23,16.23,21.59,16.23,8.11,0,16.06-3.57,20.44-9.73l12.66,9.57c-7,11-20.45,17.2-34.24,17.2-22.56,0-39.75-16.23-39.75-39.92,0-24.18,18-39.75,39.75-39.75,21.58,0,38.62,15.41,38.62,39.1C494.24,80.48,494.07,82.92,493.91,85.67ZM475.58,72.53C474.44,62.15,466.33,56,455.78,56c-10.06,0-18.33,5-20.61,16.55Z"/><path class="cls-2" d="M561.25,41.86l-3.73,17.85a23.74,23.74,0,0,0-11-2.76c-12.33,0-19.14,12.34-19.14,33.59V117h-19V41.21h18.82V57.44c4.06-12.66,12.34-18.17,21.75-18.17C553.46,39.27,558.33,40.24,561.25,41.86Z"/><path class="cls-2" d="M567.57,14.44c0-6.65,5.68-11.52,12.34-11.52,6.81,0,12.17,4.87,12.17,11.52,0,6.49-5.36,11.52-12.17,11.52C573.25,26,567.57,20.93,567.57,14.44ZM570.5,117V41.21h18.82V117Z"/><path class="cls-2" d="M682,85.67H623.23c2.11,10.55,10.22,16.23,21.58,16.23,8.11,0,16.07-3.57,20.45-9.73l12.65,9.57c-7,11-20.44,17.2-34.24,17.2-22.55,0-39.75-16.23-39.75-39.92,0-24.18,18-39.75,39.75-39.75s38.62,15.41,38.62,39.1C682.29,80.48,682.13,82.92,682,85.67ZM663.63,72.53C662.5,62.15,654.38,56,643.84,56c-10.06,0-18.34,5-20.61,16.55Z"/><path class="cls-2" d="M737.62,17.52c-12.81,0-16.55,7.14-16.39,16.39v7.3h16.88V56.14H721.23V117H702.41V56.14H688V41.21h14.44V34.89C702.41,13.14,712.8,0,733.89,0h8.93V17.52Z"/><polygon class="cls-1" points="68.27 85.22 36.13 66.67 68.27 48.11 68.27 85.22"/></g></g></svg>